<?xml version="1.0" encoding="UTF-8" standalone="no"?>
<!-- Created with Inkscape (http://www.inkscape.org/) -->

<svg
   xmlns:dc="http://purl.org/dc/elements/1.1/"
   xmlns:cc="http://creativecommons.org/ns#"
   xmlns:rdf="http://www.w3.org/1999/02/22-rdf-syntax-ns#"
   xmlns:svg="http://www.w3.org/2000/svg"
   xmlns="http://www.w3.org/2000/svg"
   xmlns:sodipodi="http://sodipodi.sourceforge.net/DTD/sodipodi-0.dtd"
   xmlns:inkscape="http://www.inkscape.org/namespaces/inkscape"
   width="744.09448819"
   height="1052.3622047"
   id="svg3350"
   version="1.1"
   inkscape:version="0.48.3.1 r9886"
   sodipodi:docname="New document 2">
  <defs
     id="defs3352">
    <marker
       inkscape:stockid="Arrow2Mend"
       orient="auto"
       refY="0.0"
       refX="0.0"
       id="Arrow2Mend"
       style="overflow:visible;">
      <path
         id="path4971"
         style="fill-rule:evenodd;stroke-width:0.62500000;stroke-linejoin:round;"
         d="M 8.7185878,4.0337352 L -2.2072895,0.016013256 L 8.7185884,-4.0017078 C 6.9730900,-1.6296469 6.9831476,1.6157441 8.7185878,4.0337352 z "
         transform="scale(0.6) rotate(180) translate(0,0)" />
    </marker>
  </defs>
  <sodipodi:namedview
     id="base"
     pagecolor="#ffffff"
     bordercolor="#666666"
     borderopacity="1.0"
     inkscape:pageopacity="0.0"
     inkscape:pageshadow="2"
     inkscape:zoom="0.68158274"
     inkscape:cx="162.1295"
     inkscape:cy="569.71763"
     inkscape:document-units="px"
     inkscape:current-layer="layer1"
     showgrid="false"
     inkscape:window-width="1440"
     inkscape:window-height="872"
     inkscape:window-x="0"
     inkscape:window-y="0"
     inkscape:window-maximized="1" />
  <metadata
     id="metadata3355">
    <rdf:RDF>
      <cc:Work
         rdf:about="">
        <dc:format>image/svg+xml</dc:format>
        <dc:type
           rdf:resource="http://purl.org/dc/dcmitype/StillImage" />
        <dc:title></dc:title>
      </cc:Work>
    </rdf:RDF>
  </metadata>
  <g
     inkscape:label="Layer 1"
     inkscape:groupmode="layer"
     id="layer1">
    <g
       id="g4765">
      <path
         sodipodi:nodetypes="csscscc"
         inkscape:connector-curvature="0"
         id="path4745-6"
         d="m 34.620581,592.55424 0,-263.21469 156.573459,0 c 8.97453,24.74332 10.54377,66.68928 10.54377,79.55914 0,12.86986 1.16999,93.59898 1.16999,99.44892 0,5.84993 0,84.23908 0,84.23908 l -168.832288,0"
         style="fill:#c6c6c6;fill-opacity:1;stroke:none" />
      <path
         sodipodi:nodetypes="cssc"
         inkscape:connector-curvature="0"
         id="path4745"
         d="m 190.69404,328.83955 c 8.97453,24.74332 10.54377,66.68928 10.54377,79.55914 0,12.86986 1.16999,93.59898 1.16999,99.44892 0,5.84993 0,84.23908 0,84.23908"
         style="fill:none;stroke:#000000;stroke-width:1.875;stroke-linecap:butt;stroke-linejoin:miter;stroke-opacity:1;stroke-miterlimit:4;stroke-dasharray:none" />
    </g>
    <path
       style="fill:none;stroke:#000000;stroke-width:1px;stroke-linecap:butt;stroke-linejoin:miter;stroke-opacity:1"
       d="m 121.90016,540.90022 c 16.08045,7.26214 42.53538,24.38003 42.53538,24.38003"
       id="path4771"
       inkscape:connector-curvature="0" />
    <path
       style="fill:none;stroke:#000000;stroke-width:1px;stroke-linecap:butt;stroke-linejoin:miter;stroke-opacity:1"
       d="m 175.32875,361.94041 c 37.34813,9.85575 49.27879,23.34258 49.27879,23.34258"
       id="path4773"
       inkscape:connector-curvature="0" />
    <path
       style="fill:none;stroke:#000000;stroke-width:1px;stroke-linecap:butt;stroke-linejoin:miter;stroke-opacity:1"
       d="m 57.578375,346.89741 c 37.348135,3.11234 37.348135,3.11234 37.348135,3.11234"
       id="path4775"
       inkscape:connector-curvature="0" />
    <path
       style="fill:none;stroke:#000000;stroke-width:1px;stroke-linecap:butt;stroke-linejoin:miter;stroke-opacity:1"
       d="m 68.471581,432.48688 c 34.754519,5.70597 45.647719,11.93066 45.647719,11.93066"
       id="path4777"
       inkscape:connector-curvature="0" />
    <path
       style="fill:none;stroke:#000000;stroke-width:1px;stroke-linecap:butt;stroke-linejoin:miter;stroke-opacity:1"
       d="m 51.353686,548.68108 c 23.342584,6.22469 45.647721,11.93066 45.647721,11.93066 l 0.518724,0"
       id="path4779"
       inkscape:connector-curvature="0" />
    <path
       style="fill:none;stroke:#000000;stroke-width:1px;stroke-linecap:butt;stroke-linejoin:miter;stroke-opacity:1"
       d="m 171.69768,538.3066 c 44.09155,8.29959 51.87241,10.89321 51.87241,10.89321"
       id="path4781"
       inkscape:connector-curvature="0" />
    <g
       id="g4783"
       transform="matrix(-0.87433578,-0.48532148,-0.48532148,0.87433578,690.01846,201.24807)">
      <path
         inkscape:connector-curvature="0"
         id="path20"
         d="m 369.14708,421.67647 c -5.87258,-9.91195 -13.42922,-14.48519 -23.72194,-11.1956 -10.29273,3.29352 -30.34824,13.13873 -47.47923,31.57692 -17.13099,18.43819 -19.16441,18.88178 -25.12728,42.18369 -5.96288,23.30192 10.87763,33.85766 12.04351,34.31302 1.16588,0.45928 16.20849,9.27209 31.87918,-6.90108 15.66677,-16.17316 13.78252,-32.27174 15.30563,-39.16888 1.5231,-6.89715 -0.19628,-12.38111 -0.19628,-12.38111 l 2.87741,-3.10901 2.48093,-6.57133 2.7989,0.63593 1.69583,-0.369 3.06976,-3.85879 -1.23262,-4.87943 0.63594,-2.7989 1.66835,-2.13548 2.06482,-2.75572 0.84399,-2.66936 1.26794,-1.51525 0.87147,-0.89894 0.0118,0.88716 3.24641,-1.41318 3.45053,-1.27973 2.04913,0.44359 1.66835,-2.13549 0.66341,-1.03241 1.77041,-0.0275 1.0913,0.11777 1.32682,-2.0609 2.97555,-1.00101 z"
         style="fill:#bfbfbf" />
      <polygon
         transform="matrix(3.9255249,0,0,3.9255249,46.653435,251.33224)"
         id="polygon22"
         points="77.299,61.729 76.799,60.354 74.799,62.354 76.424,65.354 77.174,68.479 75.924,72.729 74.674,74.229 74.049,74.229 75.049,72.604 75.924,70.604 76.424,68.354 74.424,71.354 73.049,73.104 72.424,73.104 73.674,71.604 74.674,69.854 75.299,67.479 74.424,65.229 73.174,62.354 73.174,60.729 73.799,58.854 73.299,57.729 72.549,56.604 68.924,53.604 73.049,47.479 74.299,45.979 77.049,48.354 78.174,51.479 77.799,52.979 77.799,54.354 78.174,55.854 76.299,56.354 77.799,58.354 78.424,60.104 78.424,61.979 79.424,63.479 79.424,64.604 78.299,62.854 77.924,63.979 77.299,64.729 77.549,63.229 "
         style="fill:#bfbfbf" />
      <polyline
         transform="matrix(3.9255249,0,0,3.9255249,46.653435,251.33224)"
         id="polyline24"
         points="81.665,45.937 82.415,49.812 83.29,50.062 84.665,49.187 85.79,49.062 85.665,50.437       85.415,52.312 84.54,53.812 84.79,54.937 85.665,55.187 86.04,53.062 86.29,51.812 86.915,50.687 87.165,49.687 87.165,48.312       86.165,47.187 84.915,48.312 83.665,48.687 82.79,47.687 "
         style="fill:#bfbfbf" />
      <path
         style="fill:none;stroke:#000000;stroke-width:1.57000005;stroke-miterlimit:4;stroke-dasharray:none"
         d="m 367.3963,421.61758 c -5.87259,-9.91195 -13.42922,-14.48518 -23.72195,-11.19559 -10.29273,3.29351 -30.34823,13.13873 -47.47922,31.57692 -17.13099,18.43819 -19.16442,18.88177 -25.12729,42.18369 -5.95894,23.30192 10.87763,33.85765 12.04351,34.31301 1.16588,0.45929 16.2085,9.27209 31.87919,-6.90107 15.6707,-16.17316 13.78252,-32.27174 15.30562,-39.16889 1.52311,-6.89714 -0.19627,-12.3811 -0.19627,-12.3811 l 2.87741,-3.10902 2.48093,-6.57133 2.7989,0.63594 1.69582,-0.369 3.06976,-3.85879 -1.23261,-4.88335 0.63593,-2.7989 1.66835,-2.13549 2.06483,-2.75572 0.84399,-2.66935 1.26794,-1.51526 0.87147,-0.89894 0.0118,0.88324 3.24641,-1.40926 3.45054,-1.27972 2.04912,0.44358 1.66835,-2.13549 0.66342,-1.03241 1.77041,-0.0275 1.09129,0.11777 1.32683,-2.0609 2.97555,-0.99709 z"
         id="path28"
         inkscape:connector-curvature="0" />
      <g
         transform="matrix(3.9255249,0,0,3.9255249,46.653435,251.33224)"
         id="g30">
        <polyline
           style="fill:none;stroke:#808080;stroke-width:0.2"
           points="57.456,64.41 58.654,64.512 59.566,65.174         60.422,65.576 61.687,65.574 "
           id="polyline32" />
        <polyline
           style="fill:none;stroke:#808080;stroke-width:0.2"
           points="58.258,65.818 59.269,66.097 59.993,66.936         60.108,67.679 "
           id="polyline34" />
        <polyline
           style="fill:none;stroke:#808080;stroke-width:0.2"
           points="57.267,62.28 58.539,62.728 59.732,63.646         60.558,64.326 61.222,64.679 61.932,64.616 63.157,64.215 "
           id="polyline36" />
        <polyline
           style="fill:none;stroke:#808080;stroke-width:0.2"
           points="57.313,59.783 58.658,60.351 59.918,61.164         61.198,62.062 62.005,62.656 63.147,62.5 64.3,61.979 "
           id="polyline38" />
        <polyline
           style="fill:none;stroke:#808080;stroke-width:0.2"
           points="58.12,57.031 61.73,59.505 63.096,60.385         64.565,60.067 65.579,59.531 "
           id="polyline40" />
        <polyline
           style="fill:none;stroke:#808080;stroke-width:0.2"
           points="59.185,54.223 61.425,55.592 62.623,56.735         64.112,57.769 65.344,57.818 66.738,57.155 "
           id="polyline42" />
        <polyline
           style="fill:none;stroke:#808080;stroke-width:0.2"
           points="61.072,51.871 62.682,52.833 63.965,53.957         65.178,54.96 66.382,55.514 67.555,55.079 68.802,53.95 "
           id="polyline44" />
        <polyline
           style="fill:none;stroke:#808080;stroke-width:0.2"
           points="62.895,49.848 65.049,51.235 66.261,52.239         67.199,53.438 68.002,53.807 68.555,53.642 "
           id="polyline46" />
        <polyline
           style="fill:none;stroke:#808080;stroke-width:0.2"
           points="64.087,48.459 65.183,48.719 65.994,48.499         66.802,48.052 "
           id="polyline48" />
        <polyline
           style="fill:none;stroke:#808080;stroke-width:0.2"
           points="60.981,65.862 61.097,66.606 62.17,67.594         62.53,68.421 "
           id="polyline50" />
        <polyline
           style="fill:none;stroke:#808080;stroke-width:0.2"
           points="61.436,65.04 61.916,65.795 62.704,66.303         63.721,67.032 65.004,68.156 "
           id="polyline52" />
        <polyline
           style="fill:none;stroke:#808080;stroke-width:0.2"
           points="62.253,62.964 62.365,63.482 62.841,64.012         63.592,64.347 64.572,64.904 65.446,65.393 65.953,65.645 66.958,66.738 "
           id="polyline54" />
        <polyline
           style="fill:none;stroke:#808080;stroke-width:0.2"
           points="66.088,65.435 66.513,64.891 67.419,64.062         67.934,63.724 68.793,64.352 69.112,64.78 "
           id="polyline56" />
        <polyline
           style="fill:none;stroke:#808080;stroke-width:0.2"
           points="63.396,60.727 63.752,61.328 64.63,62.042         66.274,62.953 67.705,63.502 "
           id="polyline58" />
        <polyline
           style="fill:none;stroke:#808080;stroke-width:0.2"
           points="64.378,58.163 64.562,58.802 65.159,59.26         66.033,59.75 67.463,60.299 68.811,61.092 70.057,62.043 70.398,62.784 "
           id="polyline60" />
        <polyline
           style="fill:none;stroke:#808080;stroke-width:0.2"
           points="65.497,55.389 65.612,56.133 66.265,56.851         67.293,57.216 68.375,57.615 69.527,58.134 70.664,58.792 71.456,59.525 "
           id="polyline62" />
        <polyline
           style="fill:none;stroke:#808080;stroke-width:0.2"
           points="68.125,50.615 67.772,51.279 67.703,52.424         68.097,53.198 69.256,54.168 70.468,55.172 71.482,55.676 72.124,55.718 "
           id="polyline64" />
        <polyline
           style="fill:none;stroke:#808080;stroke-width:0.2"
           points="67.702,45.732 66.893,47.219 66.828,48.589         67.454,49.811 68.805,50.83 69.725,50.901 70.367,50.943 70.938,50.865 71.11,51.868 71.484,52.555 71.785,52.897 "
           id="polyline66" />
        <polyline
           style="fill:none;stroke:#808080;stroke-width:0.2"
           points="71.092,50.741 71.532,50.058 72.329,48.936 "
           id="polyline68" />
        <polyline
           style="fill:none;stroke:#808080;stroke-width:0.2"
           points="67.247,45.514 69.098,46.334 70.6,47.004         72.101,47.674 "
           id="polyline70" />
        <path
           style="fill:none;stroke:#808080;stroke-width:0.2"
           d="m 68.656,44.712 c 0,0 1.629,1.049 1.82,1.098 0.191,0.049 1.576,1.015 1.576,1.015 l 0.762,1.011"
           id="path72"
           inkscape:connector-curvature="0" />
        <polyline
           style="fill:none;stroke:#808080;stroke-width:0.2"
           points="69.836,43.688 71.045,44.466 72.655,45.429         72.876,46.24 73.855,46.797 "
           id="polyline74" />
        <path
           style="fill:none;stroke:#808080;stroke-width:0.2"
           d="m 70.952,42.994 c 0,0 1.122,0.797 1.246,0.951 0.124,0.154 1.279,0.898 1.279,0.898 l 0.511,0.478"
           id="path76"
           inkscape:connector-curvature="0" />
        <polyline
           style="fill:none;stroke:#808080;stroke-width:0.2"
           points="72.226,42.402 73.434,43.18 74.328,43.755         74.684,44.356 74.935,44.89 75.88,45.5 76.369,45.665 "
           id="polyline78" />
        <polyline
           style="fill:none;stroke:#808080;stroke-width:0.2"
           points="73.74,41.667 74.46,42.28 75.252,43.013 75.679,43.734         76.573,44.31 "
           id="polyline80" />
        <polyline
           style="fill:none;stroke:#808080;stroke-width:0.2"
           points="74.615,41.116 75.493,41.83 76.229,42.304         76.36,42.909 77.271,43.57 77.842,43.492 78.451,43.586 79.198,43.696 79.652,43.914 "
           id="polyline82" />
        <polyline
           style="fill:none;stroke:#808080;stroke-width:0.2"
           points="80.161,42.086 79.249,41.424 78.483,41.228         77.6,41.329 "
           id="polyline84" />
        <polyline
           style="fill:none;stroke:#808080;stroke-width:0.2"
           points="78.28,41.543 77.63,42.091 77.588,42.733         77.922,43.022 "
           id="polyline86" />
      </g>
      <g
         transform="matrix(3.9255249,0,0,3.9255249,46.653435,251.33224)"
         id="g88">
        <polyline
           style="fill:none;stroke:#000000;stroke-width:0.30000001"
           points="82.814,47.661 82.976,47.987 83.434,48.431 "
           id="polyline90" />
        <ellipse
           transform="matrix(0.6743,0.7384,-0.7384,0.6743,56.8508,-44.9355)"
           style="fill:none;stroke:#000000;stroke-width:0.30000001"
           cx="79.370003"
           cy="41.986"
           rx="0.248"
           ry="0.31900001"
           id="ellipse92"
           sodipodi:cx="79.370003"
           sodipodi:cy="41.986"
           sodipodi:rx="0.248"
           sodipodi:ry="0.31900001"
           d="m 79.618003,41.986 c 0,0.176179 -0.111034,0.319 -0.248,0.319 -0.136967,0 -0.248,-0.142821 -0.248,-0.319 0,-0.176179 0.111033,-0.319 0.248,-0.319 0.136966,0 0.248,0.142821 0.248,0.319 z" />
        <g
           id="g94">
          <polyline
             style="fill:none;stroke:#808080;stroke-width:0.2"
             points="81.241,47.911 81.113,48.572 81.33,49.158 "
             id="polyline96" />
          <polyline
             style="fill:none;stroke:#808080;stroke-width:0.2"
             points="80.455,48.669 80.722,49.063 80.883,49.39 "
             id="polyline98" />
          <polyline
             style="fill:none;stroke:#808080;stroke-width:0.2"
             points="79.565,44.973 78.884,45.798 78.467,46.793          78.924,47.237 "
             id="polyline100" />
          <polyline
             style="fill:none;stroke:#808080;stroke-width:0.2"
             points="79.993,44.654 79.384,45.6 79.274,46.347          79.518,47.47 79.806,48.176 "
             id="polyline102" />
          <polyline
             style="fill:none;stroke:#808080;stroke-width:0.2"
             points="80.44,44.422 79.613,45.822 79.556,46.603          79.897,47.343 80.122,48.379 "
             id="polyline104" />
          <polyline
             style="fill:none;stroke:#808080;stroke-width:0.2"
             points="80.891,44.415 80.184,45.743 80.405,46.555          80.7,47.711 81.033,49.041 "
             id="polyline106" />
          <path
             style="fill:none;stroke:#808080;stroke-width:0.2"
             d="m 81.123,44.862 -0.199,0.541 c 0,0 0.014,0.901 0.138,1.055 0.124,0.154 0.184,0.639 0.184,0.639 l 0.243,1.123 0.041,0.398"
             id="path108"
             inkscape:connector-curvature="0" />
          <polyline
             style="fill:none;stroke:#808080;stroke-width:0.2"
             points="80.582,45.702 80.698,46.446 80.915,47.032 "
             id="polyline110" />
          <polyline
             style="fill:none;stroke:#808080;stroke-width:0.2"
             points="80.037,46.318 80.062,46.855 80.073,47.531 "
             id="polyline112" />
          <polyline
             style="fill:none;stroke:#808080;stroke-width:0.2"
             points="80.948,43.633 81.172,44.67 81.457,46.191          81.804,48.422 82.082,48.453 82.157,47.758 81.892,46.323 81.63,45.114 81.244,43.75 "
             id="polyline114" />
          <polyline
             style="fill:none;stroke:#808080;stroke-width:0.2"
             points="81.736,44.141 82.325,45.189 83.191,46.268          83.585,47.042 83.941,47.643 84.163,47.414 83.454,46.437 82.955,45.596 82.314,44.513 81.729,43.69 "
             id="polyline116" />
          <polyline
             style="fill:none;stroke:#808080;stroke-width:0.2"
             points="82.297,46.733 83.002,47.484 83.46,47.928 "
             id="polyline118" />
          <polyline
             style="fill:none;stroke:#808080;stroke-width:0.2"
             points="82.425,46.072 83.149,46.91 83.419,47.53 "
             id="polyline120" />
          <polyline
             style="fill:none;stroke:#808080;stroke-width:0.2"
             points="83.882,46.118 84.201,46.546 84.554,46.922 "
             id="polyline122" />
          <line
             style="fill:none;stroke:#808080;stroke-width:0.2"
             x1="83.480003"
             y1="45.933998"
             x2="84.013"
             y2="46.723"
             id="line124" />
        </g>
        <polyline
           style="fill:none;stroke:#404040;stroke-width:0.30000001"
           points="86.91,51.122 87.007,51.779 87.255,51.047 "
           id="polyline126" />
        <path
           style="fill:none;stroke:#404040;stroke-width:0.30000001"
           d="m 86.514,48.418 c 0.096,-0.029 0.162,-0.049 0.162,-0.049 l -0.06,-0.484 0.256,-0.281 -0.905,-0.211 -1.375,0.75 -0.895,0.465 -0.266,-0.395"
           id="path128"
           inkscape:connector-curvature="0" />
        <path
           style="fill:none;stroke:#404040;stroke-width:0.30000001"
           d="m 86.282,50.717 0.208,0.134 c 0,0 0.297,0.117 0.484,-0.06 0.188,-0.176 0.444,-0.458 0.421,-0.77 -0.022,-0.312 -0.014,-0.901 0.035,-1.092 0.049,-0.192 -0.277,-1.071 -0.277,-1.071"
           id="path130"
           inkscape:connector-curvature="0" />
        <line
           style="fill:none;stroke:#404040;stroke-width:0.30000001"
           x1="86.127998"
           y1="52.105"
           x2="85.822998"
           y2="52.577999"
           id="line132" />
        <path
           style="fill:none;stroke:#404040;stroke-width:0.30000001"
           d="m 85.783,53.473 c 0.204,0.148 0.422,0.243 0.422,0.243 l -0.029,-0.762"
           id="path134"
           inkscape:connector-curvature="0" />
        <polyline
           style="fill:none;stroke:#404040;stroke-width:0.30000001"
           points="85.305,54.654 85.495,54.819 85.852,54.38 "
           id="polyline136" />
        <line
           style="fill:none;stroke:#404040;stroke-width:0.30000001"
           x1="85.412003"
           y1="55.063"
           x2="85.674004"
           y2="55.231998"
           id="line138" />
        <polyline
           style="fill:none;stroke:#404040;stroke-width:0.30000001"
           points="85.674,55.232 85.982,54.985 86.242,54.929         86.144,55.312 85.539,55.443 85.119,55.172 85.078,54.774 "
           id="polyline140" />
        <g
           id="g142">
          <line
             style="fill:none;stroke:#808080;stroke-width:0.2"
             x1="86.267998"
             y1="51.080002"
             x2="86.033997"
             y2="51.673"
             id="line144" />
          <polyline
             style="fill:none;stroke:#808080;stroke-width:0.2"
             points="85.551,50.692 85.438,51.214 85.734,51.331 "
             id="polyline146" />
          <path
             style="fill:none;stroke:#808080;stroke-width:0.2"
             d="m 82.812,48.482 0.078,0.571 c 0,0 0.143,0.24 0.3,0.342 0.157,0.102 0.544,0.425 0.544,0.425 l 0.552,-0.165 0.548,-0.39 0.496,-0.424 c 0,0 0.379,-0.127 0.586,-0.217 0.135,-0.059 0.417,-0.149 0.597,-0.206"
             id="path148"
             inkscape:connector-curvature="0" />
          <polyline
             style="fill:none;stroke:#808080;stroke-width:0.2"
             points="86.611,48.699 86.311,49.397 86.096,50.077          86.122,50.614 86.282,50.717 "
             id="polyline150" />
          <polyline
             style="fill:none;stroke:#808080;stroke-width:0.2"
             points="86.034,51.673 86.661,51.854 86.635,51.316 "
             id="polyline152" />
          <polyline
             style="fill:none;stroke:#808080;stroke-width:0.2"
             points="85.823,52.578 86.277,52.796 86.492,52.116 "
             id="polyline154" />
          <path
             style="fill:none;stroke:#808080;stroke-width:0.2"
             d="m 85.812,52.942 c 0,0 -0.413,0.18 -0.184,0.401 0.048,0.047 0.101,0.09 0.156,0.13"
             id="path156"
             inkscape:connector-curvature="0" />
          <path
             style="fill:none;stroke:#808080;stroke-width:0.2"
             d="m 85.544,53.587 c 0,0 -0.259,0.056 -0.135,0.21"
             id="path158"
             inkscape:connector-curvature="0" />
          <path
             style="fill:none;stroke:#808080;stroke-width:0.2"
             d="m 85.409,53.798 c 0.124,0.154 0.439,0.357 0.439,0.357 l 0.083,-0.244"
             id="path160"
             inkscape:connector-curvature="0" />
          <polyline
             style="fill:none;stroke:#808080;stroke-width:0.2"
             points="85.364,54.214 85.161,54.53 85.305,54.654 "
             id="polyline162" />
          <path
             style="fill:none;stroke:#808080;stroke-width:0.2"
             d="m 82.346,48.628 -0.004,0.815 0.754,0.56 0.436,0.132 c 0,0 0.796,-0.082 0.898,-0.24 0.102,-0.158 0.856,-0.638 0.856,-0.638 l 0.447,-0.232 0.06,0.484 -0.249,0.732 0.007,0.451 0.191,0.049"
             id="path164"
             inkscape:connector-curvature="0" />
          <polyline
             style="fill:none;stroke:#808080;stroke-width:0.2"
             points="85.336,51.372 85.204,51.807 85.501,51.924 "
             id="polyline166" />
          <polyline
             style="fill:none;stroke:#808080;stroke-width:0.2"
             points="85.174,52.085 84.956,52.539 85.252,52.656 "
             id="polyline168" />
          <polyline
             style="fill:none;stroke:#808080;stroke-width:0.2"
             points="84.907,52.731 84.708,53.271 85.019,53.249 "
             id="polyline170" />
          <path
             style="fill:none;stroke:#808080;stroke-width:0.2"
             d="m 84.561,53.846 c -0.117,0.296 -0.233,0.593 -0.233,0.593 l 0.229,0.222 0.226,-0.003 0.188,-0.176 -0.263,-0.169 0.166,-0.488 -0.313,0.021 0.147,-0.574"
             id="path172"
             inkscape:connector-curvature="0" />
        </g>
        <polyline
           style="fill:none;stroke:#404040;stroke-width:0.30000001"
           points="74.589,44.965 74.254,45.716 74.179,46.41         74.381,47.135 75.011,47.542 "
           id="polyline174" />
        <polyline
           style="fill:none;stroke:#404040;stroke-width:0.30000001"
           points="76.84,43.664 76.828,44.028 76.873,44.651         76.981,44.944 "
           id="polyline176" />
        <polyline
           style="fill:none;stroke:#404040;stroke-width:0.30000001"
           points="78.237,51.998 78.217,52.952 77.538,52.737         76.93,52.643 76.889,52.245 "
           id="polyline178" />
        <line
           style="fill:none;stroke:#404040;stroke-width:0.30000001"
           x1="75.481003"
           y1="50.966"
           x2="74.714996"
           y2="50.771"
           id="line180" />
        <polyline
           style="fill:none;stroke:#404040;stroke-width:0.30000001"
           points="76.672,46.232 77.118,47.04 76.776,47.34         75.913,47.527 "
           id="polyline182" />
        <path
           style="fill:none;stroke:#404040;stroke-width:0.30000001"
           d="m 76.986,47.476 0.465,0.894 0.364,1.052 0.54,1.24 0.048,0.849 -0.166,0.488 c 0,0 -0.552,0.165 -0.777,0.168 -0.226,0.003 -0.856,-0.402 -0.856,-0.402 l -0.665,-0.354 -0.247,-1.348"
           id="path184"
           inkscape:connector-curvature="0" />
        <polyline
           style="fill:none;stroke:#404040;stroke-width:0.30000001"
           points="75.623,54.544 75.903,54.583 77.033,54.791         77.875,54.292 78.119,53.334 "
           id="polyline186" />
        <polyline
           style="fill:none;stroke:#404040;stroke-width:0.30000001"
           points="74.644,55.037 75.992,55.83 77.763,57.12         77.252,57.682 77.141,58.116 "
           id="polyline188" />
        <polyline
           style="fill:none;stroke:#404040;stroke-width:0.30000001"
           points="77.864,58.885 78.449,58.825 77.74,57.848 "
           id="polyline190" />
        <polyline
           style="fill:none;stroke:#404040;stroke-width:0.30000001"
           points="77.899,60.255 78.489,60.263 78.335,59.347 "
           id="polyline192" />
        <polyline
           style="fill:none;stroke:#404040;stroke-width:0.30000001"
           points="77.975,61.173 77.951,61.329 78.229,61.359         78.511,60.575 "
           id="polyline194" />
        <polyline
           style="fill:none;stroke:#404040;stroke-width:0.30000001"
           points="77.85,62.233 77.811,62.354 78.318,62.606         78.766,61.333 "
           id="polyline196" />
        <polyline
           style="fill:none;stroke:#404040;stroke-width:0.30000001"
           points="77.327,63.873 77.299,63.958 77.787,64.123         78.254,62.937 "
           id="polyline198" />
        <polyline
           style="fill:none;stroke:#404040;stroke-width:0.30000001"
           points="76.848,56.232 77.85,56.061 78.294,55.603         78.182,55.084 77.896,54.604 "
           id="polyline200" />
        <line
           style="fill:none;stroke:#404040;stroke-width:0.30000001"
           x1="72.453003"
           y1="53.476002"
           x2="72.616997"
           y2="54.028"
           id="line202" />
        <g
           id="g204">
          <polyline
             style="fill:none;stroke:#808080;stroke-width:0.2"
             points="76.93,52.643 75.584,53.115 74.123,53.883          73.3,54.468 73.773,54.773 74.276,54.799 74.671,54.533 75.017,54.458 75.623,54.544 "
             id="polyline206" />
          <polyline
             style="fill:none;stroke:#808080;stroke-width:0.2"
             points="77.141,58.116 77.105,58.257 76.032,57.268          74.062,55.479 73.461,54.795 "
             id="polyline208" />
          <polyline
             style="fill:none;stroke:#808080;stroke-width:0.2"
             points="73.085,55.148 72.917,55.411 73.412,56.027          74.083,56.831 74.819,57.305 "
             id="polyline210" />
          <polyline
             style="fill:none;stroke:#808080;stroke-width:0.2"
             points="72.601,56.248 73.013,57.108 73.91,57.909          74.277,58.146 "
             id="polyline212" />
        </g>
        <polyline
           style="fill:none;stroke:#404040;stroke-width:0.30000001"
           points="74.207,61.371 74.698,61.762 74.961,61.931         75.792,60.756 76.646,59.894 77.483,59.169 "
           id="polyline214" />
        <line
           style="fill:none;stroke:#808080;stroke-width:0.2"
           x1="76.855003"
           y1="60.028999"
           x2="77.167"
           y2="60.931"
           id="line216" />
        <polyline
           style="fill:none;stroke:#404040;stroke-width:0.30000001"
           points="77.167,60.931 77.219,61.081 77.61,60.589         77.284,59.71 "
           id="polyline218" />
        <line
           style="fill:none;stroke:#808080;stroke-width:0.2"
           x1="77.375999"
           y1="61.181999"
           x2="77.559998"
           y2="61.820999"
           id="line220" />
        <polyline
           style="fill:none;stroke:#404040;stroke-width:0.30000001"
           points="78.531,62.967 78.926,62.701 78.784,62.46 "
           id="polyline222" />
        <polyline
           style="fill:none;stroke:#404040;stroke-width:0.30000001"
           points="78.944,63.827 79.357,63.647 79.05,62.855 "
           id="polyline224" />
        <polyline
           style="fill:none;stroke:#404040;stroke-width:0.30000001"
           points="79.304,64.654 79.852,64.264 79.549,63.696 "
           id="polyline226" />
        <polyline
           style="fill:none;stroke:#404040;stroke-width:0.30000001"
           points="79.976,64.418 80.6,64.373 80.863,63.502 "
           id="polyline228" />
        <polyline
           style="fill:none;stroke:#404040;stroke-width:0.30000001"
           points="79.082,64.883 78.913,65.146 78.391,65.032 "
           id="polyline230" />
        <g
           id="g232">
          <polyline
             style="fill:none;stroke:#808080;stroke-width:0.2"
             points="77.379,58.062 77.652,58.907 77.864,58.885 "
             id="polyline234" />
          <line
             style="fill:none;stroke:#808080;stroke-width:0.2"
             x1="77.848"
             y1="59.181"
             x2="77.899002"
             y2="60.255001"
             id="line236" />
          <line
             style="fill:none;stroke:#808080;stroke-width:0.2"
             x1="78.044998"
             y1="60.721001"
             x2="77.974998"
             y2="61.173"
             id="line238" />
          <line
             style="fill:none;stroke:#808080;stroke-width:0.2"
             x1="78.026001"
             y1="61.674999"
             x2="77.849998"
             y2="62.233002"
             id="line240" />
          <line
             style="fill:none;stroke:#808080;stroke-width:0.2"
             x1="77.679001"
             y1="62.790001"
             x2="77.327003"
             y2="63.873001"
             id="line242" />
          <line
             style="fill:none;stroke:#808080;stroke-width:0.2"
             x1="78.674004"
             y1="63.208"
             x2="78.944"
             y2="63.827"
             id="line244" />
          <line
             style="fill:none;stroke:#808080;stroke-width:0.2"
             x1="79.033997"
             y1="64.033997"
             x2="79.304001"
             y2="64.653999"
             id="line246" />
          <polyline
             style="fill:none;stroke:#808080;stroke-width:0.2"
             points="77.479,64.371 77.452,64.874 77.677,64.87 "
             id="polyline248" />
        </g>
        <polyline
           style="fill:none;stroke:#404040;stroke-width:0.30000001"
           points="77.963,64.311 78.173,64.446 78.094,64.916 "
           id="polyline250" />
        <polyline
           style="fill:none;stroke:#404040;stroke-width:0.30000001"
           points="75.441,67.073 75.978,67.047 75.057,64.669         73.869,61.896 "
           id="polyline252" />
        <polyline
           style="fill:none;stroke:#404040;stroke-width:0.30000001"
           points="75.021,62.416 76.003,64.238 77.251,66.455         77.454,67.179 76.635,66.95 "
           id="polyline254" />
        <polyline
           style="fill:none;stroke:#404040;stroke-width:0.30000001"
           points="75.173,68.758 75.665,69.149 76.342,68.099 "
           id="polyline256" />
        <polyline
           style="fill:none;stroke:#404040;stroke-width:0.30000001"
           points="74.755,69.753 75.318,70.264 75.672,69.6 "
           id="polyline258" />
        <polyline
           style="fill:none;stroke:#404040;stroke-width:0.30000001"
           points="74.112,70.751 74.743,71.158 75.217,70.422 "
           id="polyline260" />
        <polyline
           style="fill:none;stroke:#404040;stroke-width:0.30000001"
           points="73.624,71.626 73.942,72.054 74.469,71.353 "
           id="polyline262" />
        <polyline
           style="fill:none;stroke:#404040;stroke-width:0.30000001"
           points="72.733,72.458 72.428,72.789 72.886,73.232         73.597,72.129 "
           id="polyline264" />
        <polyline
           style="fill:none;stroke:#404040;stroke-width:0.30000001"
           points="72.428,72.789 72.037,73.281 72.442,73.69         72.698,73.409 "
           id="polyline266" />
        <polyline
           style="fill:none;stroke:#404040;stroke-width:0.30000001"
           points="72.566,73.844 72.592,74.381 73.118,74.72 "
           id="polyline268" />
        <polyline
           style="fill:none;stroke:#404040;stroke-width:0.30000001"
           points="77.183,67.6 77.088,69.248 76.359,69.225 "
           id="polyline270" />
        <polyline
           style="fill:none;stroke:#404040;stroke-width:0.30000001"
           points="75.844,70.603 76.422,70.975 77.027,69.804 "
           id="polyline272" />
        <polyline
           style="fill:none;stroke:#404040;stroke-width:0.30000001"
           points="75.445,71.684 76.199,72.244 76.53,71.268 "
           id="polyline274" />
        <polyline
           style="fill:none;stroke:#404040;stroke-width:0.30000001"
           points="74.839,72.855 75.192,73.231 76.03,72.507 "
           id="polyline276" />
        <line
           style="fill:none;stroke:#404040;stroke-width:0.30000001"
           x1="74.621002"
           y1="73.308998"
           x2="73.782997"
           y2="74.032997"
           id="line278" />
        <g
           id="g280">
          <polyline
             style="fill:none;stroke:#808080;stroke-width:0.2"
             points="75.438,57.035 73.841,59.054 73.337,60.067          72.929,61.156 "
             id="polyline282" />
          <polyline
             style="fill:none;stroke:#808080;stroke-width:0.2"
             points="72.929,61.156 72.821,61.445 73.377,61.505          73.655,61.536 "
             id="polyline284" />
          <polyline
             style="fill:none;stroke:#808080;stroke-width:0.2"
             points="75.604,57.587 74.625,59.336 74.211,60.556          74.207,61.371 "
             id="polyline286" />
          <polyline
             style="fill:none;stroke:#808080;stroke-width:0.2"
             points="73.103,61.701 74.021,63.853 74.38,64.68          74.681,65.021 74.868,65.885 75.441,67.073 "
             id="polyline288" />
          <polyline
             style="fill:none;stroke:#808080;stroke-width:0.2"
             points="76.635,66.95 75.935,65.383 74.408,63.136          74.326,62.34 "
             id="polyline290" />
          <line
             style="fill:none;stroke:#808080;stroke-width:0.2"
             x1="75.586998"
             y1="67.539001"
             x2="75.172997"
             y2="68.758003"
             id="line292" />
          <line
             style="fill:none;stroke:#808080;stroke-width:0.2"
             x1="75.127998"
             y1="69.175003"
             x2="74.754997"
             y2="69.752998"
             id="line294" />
          <line
             style="fill:none;stroke:#808080;stroke-width:0.2"
             x1="74.570999"
             y1="70.154999"
             x2="74.112"
             y2="70.750999"
             id="line296" />
          <line
             style="fill:none;stroke:#808080;stroke-width:0.2"
             x1="74.082001"
             y1="71.028999"
             x2="73.624001"
             y2="71.625999"
             id="line298" />
          <line
             style="fill:none;stroke:#808080;stroke-width:0.2"
             x1="73.417"
             y1="71.716003"
             x2="72.733002"
             y2="72.458"
             id="line300" />
          <line
             style="fill:none;stroke:#808080;stroke-width:0.2"
             x1="76.359001"
             y1="69.224998"
             x2="76.661003"
             y2="67.487"
             id="line302" />
          <line
             style="fill:none;stroke:#808080;stroke-width:0.2"
             x1="76.242996"
             y1="69.521004"
             x2="75.844002"
             y2="70.602997"
             id="line304" />
          <line
             style="fill:none;stroke:#808080;stroke-width:0.2"
             x1="75.797997"
             y1="71.019997"
             x2="75.445"
             y2="71.683998"
             id="line306" />
          <line
             style="fill:none;stroke:#808080;stroke-width:0.2"
             x1="75.519997"
             y1="72.028999"
             x2="74.838997"
             y2="72.855003"
             id="line308" />
          <polyline
             style="fill:none;stroke:#808080;stroke-width:0.2"
             points="73.783,74.033 74.244,74.702 75.022,73.494 "
             id="polyline310" />
        </g>
        <polyline
           style="fill:none;stroke:#404040;stroke-width:0.30000001"
           points="73.775,74.623 73.992,75.209 74.664,76.013         74.941,76.043 "
           id="polyline312" />
        <g
           id="g314">
          <line
             style="fill:none;stroke:#808080;stroke-width:0.2"
             x1="78.579002"
             y1="51.698002"
             x2="78.671997"
             y2="52.129002"
             id="line316" />
          <line
             style="fill:none;stroke:#808080;stroke-width:0.2"
             x1="77.878998"
             y1="49.091"
             x2="78.111"
             y2="49.537998"
             id="line318" />
          <line
             style="fill:none;stroke:#808080;stroke-width:0.2"
             x1="78.313004"
             y1="50.263"
             x2="78.651001"
             y2="50.778"
             id="line320" />
          <line
             style="fill:none;stroke:#808080;stroke-width:0.2"
             x1="77.450996"
             y1="48.369999"
             x2="77.996002"
             y2="48.793999"
             id="line322" />
          <line
             style="fill:none;stroke:#808080;stroke-width:0.2"
             x1="77.667"
             y1="67.540001"
             x2="77.823997"
             y2="68.681999"
             id="line324" />
          <line
             style="fill:none;stroke:#808080;stroke-width:0.2"
             x1="77.855003"
             y1="67.363998"
             x2="78.549004"
             y2="68.480003"
             id="line326" />
        </g>
      </g>
    </g>
    <path
       style="fill:none;stroke:#000000;stroke-width:3.75;stroke-linecap:butt;stroke-linejoin:miter;stroke-opacity:1;marker-end:url(#Arrow2Mend);stroke-miterlimit:4;stroke-dasharray:none"
       d="m 287.56597,452.28829 152.58602,0"
       id="path4938"
       inkscape:connector-curvature="0"
       sodipodi:nodetypes="cc" />
    <path
       style="fill:none;stroke-width:1.87500000000000000;stroke-miterlimit:4;stroke-dasharray:7.50000000000000000, 7.50000000000000000;stroke:#000000;stroke-opacity:1;stroke-dashoffset:0"
       d="m 548.61037,383.62588 c -3.89722,0.21728 -8.02402,1.73662 -12.375,4.28125 l 2.125,2.3125 0.0625,0.875 -3.65625,3.6875 -3.125,3.53125 -5.78125,3.09375 -0.4375,0.15625 0.40625,-0.28125 -3,1.21875 -0.8125,0.3125 -0.4375,-0.25 1.09375,-0.5625 -3.21875,-1.53125 0.90625,1.375 -1.59375,-0.90625 -1.375,-1.4375 2.0625,0.96875 -0.625,-0.9375 -3.125,-4.875 -0.46875,-1.375 -1.5625,0.53125 -1.65625,-0.46875 0.21875,0.96875 -1.9375,0.6875 0.28125,-1.3125 c 0,0 -2.80239,2.40391 -3,3.15625 -0.1957,0.74891 -1.29883,2.78356 -1.96875,3.8125 -0.67335,1.02704 -0.30995,2.47526 0,3.4375 0.081,0.25639 0.20229,0.46982 0.375,0.625 l 0,2.1875 -0.21875,-0.375 -1.125,1.8125 1.34375,0.3125 0,0.25 -0.625,1.9375 -0.625,-1.28125 -0.5625,2.75 0.71875,0.0313 -0.40625,1.3125 -0.125,0.375 -0.15625,-1 -1.53125,2.5625 c 0,0 0.48383,0.0507 1.125,0.0313 l -0.40625,1.21875 -0.15625,-0.0625 -0.1875,1 -0.3125,0.9375 -0.125,-0.15625 0.0625,0.34375 -0.96875,2.78125 0.28125,0.0625 -0.375,0.0625 -0.59375,-1.4375 -0.78125,-0.6875 -0.40625,1.5 1.84375,1.59375 1.9375,-0.125 0.3125,-0.4375 1.28125,0.28125 0.75,-0.84375 0.5625,0.3125 1.21875,-0.3125 c 0,0 0.15607,-1.18402 0.3125,-2.375 l 0.15625,-0.1875 -0.0625,-2.5 0.5,0.34375 0.34375,-2.25 -0.875,0.96875 -0.0313,-1.84375 1.125,0.125 0.0937,-1.96875 -1.21875,1.65625 -0.0313,-1.34375 0.59375,-1.46875 1.09375,0.15625 0.375,-1.75 -1.375,1.3125 0.84375,-2.125 0.5,0.0625 0.59375,-2 -0.5625,0.5625 0.25,-0.625 0.3125,0.0625 0.125,-0.21875 -0.375,0 0.34375,-0.875 1.1875,-2.6875 -0.40625,2.25 -0.75,1.3125 5.28125,-0.28125 c -0.008,-0.0297 -0.0294,-0.0668 -0.0313,-0.0937 -0.0491,-0.73662 -1.71875,-3.84375 -1.71875,-3.84375 l -0.84375,-1.25 2.15625,1.53125 0.21875,0.625 1.125,2.375 0.5625,0.59375 -1.46875,0.0625 c 0.21905,0.78085 2.59375,2.4375 2.59375,2.4375 l 0.96875,0.21875 3.46875,0.78125 0.96875,-1.125 0.0313,-0.0625 3.09375,-3.6875 -0.375,0.875 1.03125,0.40625 5.4375,-7 3.875,-4.65625 1.34375,-1.53125 0,0.0313 1,0.4375 0.5625,0.3125 0,0.0313 0.15625,0.0625 0.8125,0.46875 0.0937,1.21875 0.40625,2.6875 1.5,0.4375 0.0625,0.34375 0.84375,0.25 2,2.375 2.15625,2.8125 0.40625,-0.71875 0.0625,0.0937 0.3125,1.0625 0.375,1.9375 -0.4375,2.09375 -2.25,1.4375 0.59375,1.6875 2.15625,1.90625 -3.25,0.65625 0.125,-2.5 -3.3125,2.1875 -3.25,2.90625 -4.21875,3.21875 -1.78125,2.84375 -0.34375,1.96875 -1.75,3.3125 1.53125,0.3125 -0.15625,0.59375 -0.96875,1.75 -0.8125,-1.15625 -0.96875,3.75 0.15625,0.28125 -0.0313,0.0937 -0.8125,0.84375 0,-0.1875 -1.875,1.125 -1.375,1.5625 0.1875,0.78125 -0.28125,0.3125 0.5,0.46875 0.21875,0.84375 3.125,2.5 0,-0.125 0.78125,0.75 -5.625,0.6875 0.65625,2.75 -3.125,1.40625 1.1875,-1.625 -4.3125,2 1.5,1.03125 -2.15625,1.90625 0.0625,-0.9375 -2.28125,2.875 0.21875,0.125 -0.78125,1.375 -0.0937,-0.46875 -0.15625,0.96875 -1.65625,2.96875 -0.53125,-1.84375 -0.53125,3.125 -1.65625,0.875 0,-0.15625 -0.96875,0.5625 0.0313,0.0625 -0.84375,0.4375 0.0937,-0.21875 -0.53125,0.4375 -1.9375,1 -1.34375,2.4375 0.5,-1.9375 -2.125,1.375 0.90625,1.84375 -0.0625,0.125 0.0937,-0.0625 0.21875,0.46875 0.15625,-0.65625 6.71875,-3.59375 -0.84375,4.5625 0.4375,2.46875 -1.3125,1.0625 0.78125,0.4375 0.59375,-1.21875 0.1875,1.03125 0.96875,-2.75 0.53125,0.0937 0.0625,-0.34375 -0.21875,-0.78125 0.65625,-1.84375 3.71875,-4.6875 4.34375,-3.75 3.0625,10.65625 -3.96875,2.53125 3.09375,-2.71875 -6.84375,4.375 -8.5,5.21875 -2.09375,2.09375 2.53125,0.59375 -2.4375,2.6875 0.0313,-1.3125 -1.28125,2.65625 -0.34375,0.375 -0.15625,0.65625 -1.03125,2.15625 0.5,0.25 -0.6875,3.0625 -0.65625,-1.28125 -0.15625,4.84375 -0.375,1.78125 -0.5625,-0.65625 -0.71875,3.96875 0.53125,-0.0625 -0.3125,1.40625 -0.125,-0.125 0.0937,0.25 -0.15625,0.71875 1.4375,7.53125 0.40625,0.21875 0.15625,2.21875 2.84375,-1.40625 -1.375,-1.78125 -0.15625,-4.21875 0.15625,-0.0625 -0.1875,-0.1875 -0.0313,-1.0625 0.375,-3.90625 0,-0.0313 0.375,-4.40625 0.3125,-0.0313 -0.21875,-0.40625 2.53125,-8.4375 0.46875,5.9375 -0.28125,-0.21875 -0.0313,2.9375 0.53125,-0.125 0.125,1.5 -0.625,-0.625 0.21875,3.4375 0.625,-0.0313 0.0937,1.3125 0,0.0937 -0.15625,-0.1875 0.5,3.40625 0.1875,-0.0937 0.875,5.40625 0.28125,0.15625 0.0313,0.59375 0.6875,-0.1875 0.65625,0.375 -1.03125,0.78125 0.34375,1.4375 2.15625,-0.625 -0.40625,-2.4375 -0.6875,0.53125 -0.0625,-0.3125 0.75,-0.21875 -0.40625,-1.71875 -0.90625,-1.09375 -0.65625,-3.4375 0.0937,-0.0313 -0.125,-0.125 0,-0.0313 -0.0625,-3.78125 0.15625,0 -0.15625,-0.15625 -0.0625,-3.96875 2.40625,-9.34375 7.28125,-6.0625 9.75,-7.5 1.65625,-2.96875 1.3125,0.53125 0.15625,-1.1875 -1.09375,-0.0313 1.03125,-1.84375 0.0625,1.875 0.6875,-4.53125 0.0625,-1.5625 0.65625,-3.46875 3.875,-2.90625 4.15625,-2.15625 c -2.73234,7.13348 -10.5389,19.94409 -5.09375,40.1875 3.00415,11.16298 9.05635,16.46897 14.40625,19.03125 5.69316,3.26242 11.02146,3.19319 11.6875,3.28125 1.24037,0.16769 21.05744,-0.89054 27.15625,-24.15625 6.09537,-23.26761 4.56104,-24.65854 -1.46875,-49.09375 -6.02978,-24.4352 -18.78661,-42.78134 -26.1875,-50.65625 -1.98289,-2.10843 -4.09993,-3.61013 -6.28125,-4.59375 -2.85477,-1.6586 -5.90386,-2.36535 -9.09375,-2.1875 z m -11.46875,6.09375 -3.59375,1.71875 -4.25,2.5 -3.3125,1.90625 -4.3125,2.03125 0.34375,1.1875 2.34375,-1.375 2.84375,-1.90625 5.03125,-2.0625 4,-2.46875 0.90625,-1.53125 z m 1.46875,4.09375 -1.96875,3.3125 0.34375,-2.21875 -7.65625,10.8125 2.96875,-3.375 c 0,0 1.12477,-1.55143 1.84375,-1.84375 0.70552,-0.28686 2.40486,-3.20183 2.46875,-3.3125 l -7.28125,12.21875 3.65625,-3.9375 3.21875,-3.40625 1.125,-1.15625 -3.625,7.96875 2.75,-3.125 0.3125,-0.21875 -1.59375,3.25 2.34375,-1.875 2.96875,-3.40625 1,-2.5625 -1.5,6.28125 2.4375,-0.625 0.46875,-4.21875 -0.78125,-4.125 -0.5625,2.40625 -0.3125,-4.3125 -0.96875,2 -0.0937,-3.65625 -1.625,3.59375 0.0625,-4.46875 z m -13.5,0.125 -3.84375,1.5 1.9375,-0.625 1.90625,-0.875 z m 1.71875,0.15625 -3.3125,1.6875 3.3125,-1.6875 z m 3.375,2.46875 -4.09375,1.5 -2.09375,1.625 6.1875,-3.125 z m -0.8125,2.53125 -6.28125,1.875 2.40625,-0.65625 3.875,-1.21875 z m -16.4375,1.3125 0.1875,0.125 -0.59375,0.78125 0.40625,-0.90625 z m -8.8125,4.03125 -0.53125,3 1.5625,-2.09375 -1.03125,-0.90625 z m 26.625,0.6875 -2.6875,4.125 1.875,-1.59375 0.8125,-2.53125 z m 1.25,4.09375 -1.65625,0.84375 -1.1875,0.84375 2.84375,-1.6875 z m 8.03125,6.375 -1.65625,1.09375 1.65625,-1.09375 z m -3.71875,3.1875 -2.125,1.125 2.125,-1.125 z m -3.65625,4.40625 -1.125,1.3125 1.125,-1.3125 z m -30.3125,36.1875 -0.75,3.46875 2.03125,1.34375 -1.28125,-4.8125 z m 3.46875,8.125 0.0937,1.21875 2,0.59375 -2.09375,-1.8125 z m 4.9375,0.15625 -0.96875,0.0625 -0.625,1.78125 1.59375,-1.84375 z m -5.4375,10.6875 -4.5,2.5 4.5,-2.5 z m 0.3125,0.96875 -2.71875,3.625 2.71875,-3.625 z m 5.5,31.34375 -3.5625,1.96875 2.4375,-0.15625 1.125,-1.8125 z m -5.65625,0.375 -6.6875,2.65625 1,0.4375 3.84375,-1.5 1.84375,-1.59375 z"
       id="path20-1"
       inkscape:connector-curvature="0" />
  </g>
</svg>
